<?xml version="1.0" encoding="utf-8"?>
<!-- Svg Vector Icons : http://www.onlinewebfonts.com/icon -->
<!DOCTYPE svg PUBLIC "-//W3C//DTD SVG 1.1//EN" "http://www.w3.org/Graphics/SVG/1.1/DTD/svg11.dtd">
<svg version="1.1" xmlns="http://www.w3.org/2000/svg" xmlns:xlink="http://www.w3.org/1999/xlink" x="0px" y="0px" viewBox="0 0 256 256" enable-background="new 0 0 256 256" xml:space="preserve">
<metadata> Svg Vector Icons : http://www.onlinewebfonts.com/icon </metadata>
<g><g><g><path stroke-width="4" fill-opacity="0" stroke="#000000"  d="M106.8,5.1c-5.7,2.2-9.4,6.5-10.5,12.5c-1.5,7.8,5.2,20.4,20,37.9C121,61.1,127.5,68,128.1,68c0.6,0,10.9-11.4,15.7-17.4c8.6-10.7,15-21.8,15.9-27.6c1.1-7.2-2.2-13.8-8.6-17.1c-2.6-1.3-8.2-1.8-11.3-1c-4.9,1.3-9.6,6.1-10.8,10.9c-1,3.9-1.1,4.1-1.5,1.7c-0.8-4.7-3.8-8.9-8.2-11.3c-2.2-1.2-3.4-1.5-6.7-1.6C110.1,4.5,107.9,4.7,106.8,5.1z"/><path stroke-width="4" fill-opacity="0" stroke="#000000"  d="M47.1,47.9c-4.1,0.8-9.6,3.8-13.1,7.2c-14.1,14-8.6,37.7,10.3,44.2c4.7,1.6,12.1,1.7,16.8,0.1c6.1-2.1,11.5-6.6,14.7-11.9c3.7-6.3,4.6-15,2.2-21.8C73.4,52.6,60.7,45.3,47.1,47.9z"/><path stroke-width="4" fill-opacity="0" stroke="#000000"  d="M196.9,48.1c-8.7,2.2-16.3,9.3-19,17.9c-1.5,4.7-1.5,11.7,0,16.2c2.8,8.4,8.8,14.4,17,17.2c4.7,1.6,12.1,1.6,16.7-0.1c11-3.8,18.2-13.7,18.2-25.2c0-11.3-6.9-21.2-17.6-25.2C208,47.4,201.2,47,196.9,48.1z"/><path stroke-width="4" fill-opacity="0" stroke="#000000"  d="M45,112.3c-8,1.8-11.6,6.4-16.3,20.9c-2.8,8.5-18.7,72.8-18.7,75.4c0,3.9,2.1,7.3,5.8,9.2c1.8,1,3.1,1.1,10.4,1.3l8.5,0.2l4.3,13.3c4.5,13.8,5.3,15.6,8.5,17.2c4.5,2.4,8.9,1.7,12.4-1.8c2.3-2.3,2.4-2.7,6.6-15.6l4.2-13.2h7c3.8,0,8.1-0.3,9.6-0.6c4.6-1,8.2-5.3,8.1-10c0-2.1-10.4-45.3-15.3-63.7c-5.9-21.9-9.8-29.3-17-31.9C60.3,112.2,48.3,111.6,45,112.3z"/><path stroke-width="4" fill-opacity="0" stroke="#000000"  d="M197.3,112.2c-15.6,2.2-28.2,13.8-33.7,31.2c-2.6,8.4-3.1,12.8-3.1,30.3l-0.1,16.1l1.5,2.5c1.1,1.8,2.3,2.9,4.2,3.9c2.5,1.3,3.1,1.4,9.2,1.4h6.5v22.6v22.6l1.4,2.7c1,2,2.1,3.1,3.9,4.2l2.4,1.5l11.8,0.2c14.7,0.3,16.6-0.1,19.9-3.4c1.9-1.9,2.5-3,3-5c0.4-1.7,0.6-10.1,0.6-24v-21.4h6c6.9,0,9.1-0.5,11.5-2.6c3.7-3.2,3.7-3.6,3.7-20.6c0-11.1-0.2-16.6-0.8-20.5c-3.4-22.8-16-37.9-34.5-41.3C207.1,111.9,200.7,111.8,197.3,112.2z"/></g></g></g>
</svg>